#!OML:ASF F:\VICON\USERDATA\INSTALL\rory3\rory3.ASF
:FULLY-SPECIFIED
:DEGREES
212
root 0.5482889745830567 17.747658284205485 40.08623030495106 1.9772311898403938 1.5530297704184464 0.11475800625359311
lfemur -16.61738378237233 1.0694341076344602 -20.226737776385587
ltibia 56.23822339661127
lfoot 2.476989130320485 -10.436471242028617
ltoes -7.992462453444319
rfemur -20.54805316924669 3.392851969017956 28.16895828592114
rtibia 53.92328261559294
rfoot -0.5985328974413103 -5.525767906744915
rtoes -6.229830696583523
lowerback 13.103494494379524 -0.1783736834531059 0.29382245733670564
upperback -0.45729478516423283 0.8909770366590136 1.571677002347361
thorax -8.345354593225155 0.731395879966073 0.7513826432435309
lowerneck -18.758379133226565 -3.8310061024496447 -2.314411767852291
upperneck 14.014952119431634 -5.0953034218085325 2.722732665364874
head 7.478014309509345 -2.35898074167864 0.711874727834114
lclavicle 3.0724827264545893e-16 -4.3067221206564905e-16
lhumerus -44.532275014745906 -15.0449199966545 98.19974876079178
lradius 110.24715435802581
lwrist 32.245164409661975
lhand -25.6547721418391 2.86514455728381
lfingers 7.125020000000001
lthumb 0.4641579284551288 32.724855280126896
rclavicle 3.0728743657241976e-16 -4.3064985682852227e-16
rhumerus -47.47800564658658 7.697077071841817 -95.90612535098977
rradius 103.90444232912603
rwrist -19.251836120526196
rhand -18.552608470499578 37.496554271805984
rfingers 7.125020000000001
rthumb 7.967931699014194 7.565060657715486
213
root 0.5365789727016077 17.704972754338304 38.89727639580781 1.9233160876200952 1.3664934174297008 0.011695783118294
lfemur -19.127564274859367 0.8087091383416968 -20.738919782825587
ltibia 57.10048020242627
lfoot 3.9250874735926735 -9.064424289800469
ltoes -7.938183139459289
rfemur -20.980422207481023 3.4130281235870243 28.131870047744705
rtibia 54.528221107955744
rfoot -1.5030751779977352 -5.929866899931846
rtoes -6.390372446258736
lowerback 13.179912478658888 -0.1554780113469555 0.32080986362265174
upperback -0.44397831857684755 1.0191198943139252 1.6439193344199305
thorax -8.245371126227727 0.8237084957702221 0.8843925761136017
lowerneck -18.781937608234806 -3.8794786598005877 -2.3291580956835896
upperneck 13.985652627524328 -5.16559145290892 2.7076494791588037
head 7.4891803985574406 -2.3190024110296794 0.7256030080753281
lclavicle 3.0724827264545893e-16 -4.3067221206564905e-16
lhumerus -44.884347978575356 -15.109739230814583 98.09751961384477
lradius 109.94774279975353
lwrist 32.4454666882806
lhand -25.6202264376729 2.924490215835732
lfingers 7.125020000000001
lthumb 0.49207790475515123 32.62950844575338
rclavicle 3.0728743657241976e-16 -4.3064985682852227e-16
rhumerus -47.29735438570576 7.637873423786112 -95.8407807088178
rradius 103.84118328065112
rwrist -19.30274689177225
rhand -18.52153484636809 37.487515671577846
rfingers 7.125020000000001
rthumb 7.938785876458099 7.497995131036066
214
root 0.5248332721106432 17.66022260417566 38.03700499764349 1.8477670648128475 1.1918921169279706 -0.17479053622479546
lfemur -18.69613577270637 0.7900066266075593 -20.74420721700152
ltibia 57.983216131893094
lfoot 5.5244895549173325 -8.325783141559349
ltoes -7.927398352043355
rfemur -21.146689335759007 3.4446245968998834 27.808914350500405
rtibia 54.80128838691774
rfoot -2.1689480543635056 -6.400920651146476
rtoes -6.050754416913974
lowerback 13.32886922815983 -0.0713896484705111 0.4952906516586678
upperback -0.45821572945042577 1.098535308180444 1.6632304266802367
thorax -8.28858335273905 0.7755432364941152 0.7258924090957045
lowerneck -18.730735918963187 -3.8519418124218205 -2.2972879641112924
upperneck 13.979965626180455 -5.223957881681853 2.7208823194343377
head 7.482939635680514 -2.3000278945367882 0.7364911616964447
lclavicle 3.0724827264545893e-16 -4.3067221206564905e-16
lhumerus -44.28695344377386 -14.722876389330317 98.2565418393824
lradius 109.75131095103247
lwrist 32.49622631863776
lhand -25.583826473627614 3.0839990059000457
lfingers 7.125020000000001
lthumb 0.5372084933455888 32.66330634649969
rclavicle 3.0728743657241976e-16 -4.3064985682852227e-16
rhumerus -47.49690346535957 7.465609814404873 -95.84715789731287
rradius 103.91451791843923
rwrist -19.355584841906726
rhand -18.524207640478696 37.49165376909082
rfingers 7.125020000000001
rthumb 7.960069407963538 7.607133785287479
215
root 0.5222263422253888 17.658296694582553 38.12612975922651 1.904656052733337 1.1507681532557223 -0.2623215806947028
lfemur -16.906521991544327 1.0363537498158695 -20.308352130258257
ltibia 58.00646209761029
lfoot 6.1769831956582495 -8.709233258716935
ltoes -8.186705706918268
rfemur -16.614071653107697 3.877416094207189 29.103688319141177
rtibia 55.037704080538425
rfoot -1.7548585045131038 -6.414525267783064
rtoes -5.698319374485225
lowerback 13.364019939222496 -0.05747646121236638 0.5026434608523714
upperback -0.4493252683407399 1.2938754085707713 1.7112341233824973
thorax -8.223782965375024 0.7993112430448304 0.7423670792755045
lowerneck -18.72068747077354 -3.8308725063878066 -2.272523157174437
upperneck 13.964621407390814 -5.277302252696596 2.7453112349289563
head 7.463914883688603 -2.306111402722304 0.738180851017201
lclavicle 3.0724827264545893e-16 -4.3067221206564905e-16
lhumerus -44.494290595249666 -14.796070991886044 98.21785159361252
lradius 109.87781041955266
lwrist 32.486605301646684
lhand -25.591460801288754 3.1203011167154617
lfingers 7.125020000000001
lthumb 0.4992336234222031 32.61764108251487
rclavicle 3.0728743657241976e-16 -4.3064985682852227e-16
rhumerus -47.252001036533414 7.456542172913402 -95.79471858217096
rradius 104.01147006954818
rwrist -19.361914940629806
rhand -18.496503267000527 37.50501456764078
rfingers 7.125020000000001
rthumb 7.918377228979514 7.499375852125691
216
root 0.5223056065996609 17.662067038822638 37.89539994435707 1.9302531470166782 1.046609720370545 -0.19486403458663237
lfemur -18.36633903027301 0.7509935485549609 -20.829059393384707
ltibia 58.013105774335976
lfoot 6.294126071616346 -10.093654572029044
ltoes -8.250449515664387
rfemur -22.215919324015122 3.0562590619823795 27.5727108466716
rtibia 55.43397674998725
rfoot -2.240569665328454 -6.511676840071753
rtoes -4.749393236299025
lowerback 13.28225084565664 -0.14400266312803656 0.3513109191508057
upperback -0.49404331219268227 1.3101347726847903 1.66555754172284
thorax -8.173773081141167 0.8776969182106562 0.8860057490774234
lowerneck -18.712019153796223 -3.8277778159636853 -2.2555515315572006
upperneck 13.919657819334436 -5.356125132762892 2.7551748836877525
head 7.4408959213134915 -2.3339957433689014 0.7309315756242809
lclavicle 3.0724827264545893e-16 -4.3067221206564905e-16
lhumerus -45.10850208929157 -14.827889838509916 98.13605713523371
lradius 109.75921511020354
lwrist 32.38356942071051
lhand -25.60531863281565 3.0830280361663718
lfingers 7.125020000000001
lthumb 0.5784432475688693 32.775976249387355
rclavicle 3.0728743657241976e-16 -4.3064985682852227e-16
rhumerus -47.08750648786924 7.449988843511625 -95.79806284570734
rradius 103.991624981596
rwrist -19.35363829719247
rhand -18.52591909354615 37.4736940073659
rfingers 7.125020000000001
rthumb 7.904307116768507 7.497592562264432
217
root 0.5489478831266075 17.745533160810954 40.95670103375754 2.172234334463321 1.5566592562866108 0.03853463720969552
lfemur -19.030121752251205 0.6410129743652088 -20.79948630710701
ltibia 57.838981557324125
lfoot 5.256481210245653 -11.224528234521005
ltoes -8.352362273244607
rfemur -21.17958768761117 3.1842851918698143 27.950813372639278
rtibia 55.885050360912345
rfoot -2.6624113261334563 -6.402190901779654
rtoes -4.050794778396272
lowerback 13.284817431456789 -0.14697304218973406 0.40380225210363796
upperback -0.5140286360437849 1.2261540655089622 1.6193242630509412
thorax -8.266454964806087 0.8416049318968417 0.7434844715276635
lowerneck -18.66582803463288 -3.8459698078562305 -2.25657550448774
upperneck 13.92443242211219 -5.3425009922192075 2.8352730797942
head 7.420926704274849 -2.3842581272830525 0.7173146049831878
lclavicle 3.0724827264545893e-16 -4.3067221206564905e-16
lhumerus -46.22800511163572 -14.991501086936712 97.980257931979
lradius 109.81773348625694
lwrist 32.32340470621214
lhand -25.61823972374474 3.139979943653026
lfingers 7.125020000000001
lthumb 0.5249191908576059 32.706406276506996
rclavicle 3.0728743657241976e-16 -4.3064985682852227e-16
rhumerus -46.67862670440102 7.505628642428879 -95.78003879521972
rradius 103.97572576832042
rwrist -19.40459897734883
rhand -18.51034171860067 37.457268741395666
rfingers 7.125020000000001
rthumb 7.9516318290985755 7.5349308593670665
